<svg width="21" height="20" viewBox="0 0 21 20" fill="none" xmlns="http://www.w3.org/2000/svg">
<path d="M15.2403 8.95866C14.882 8.95866 14.5986 8.66699 14.5986 8.31699C14.5986 8.00866 14.2903 7.36699 13.7736 6.80866C13.2653 6.26699 12.707 5.95033 12.2403 5.95033C11.882 5.95033 11.5986 5.65866 11.5986 5.30866C11.5986 4.95866 11.8903 4.66699 12.2403 4.66699C13.0736 4.66699 13.9486 5.11699 14.7153 5.92533C15.432 6.68366 15.8903 7.62533 15.8903 8.30866C15.8903 8.66699 15.5986 8.95866 15.2403 8.95866Z" fill="#9D4858"/>
<path d="M18.2481 8.95768C17.8898 8.95768 17.6064 8.66602 17.6064 8.31602C17.6064 5.35768 15.1981 2.95768 12.2481 2.95768C11.8898 2.95768 11.6064 2.66602 11.6064 2.31602C11.6064 1.96602 11.8898 1.66602 12.2398 1.66602C15.9064 1.66602 18.8898 4.64935 18.8898 8.31602C18.8898 8.66602 18.5981 8.95768 18.2481 8.95768Z" fill="#9D4858"/>
<path d="M9.7653 12.4577L8.22363 13.9993C7.89863 14.3243 7.38197 14.3243 7.04863 14.0077C6.95697 13.916 6.8653 13.8327 6.77363 13.741C5.9153 12.8743 5.1403 11.966 4.44863 11.016C3.7653 10.066 3.2153 9.11602 2.8153 8.17435C2.42363 7.22435 2.22363 6.31602 2.22363 5.44935C2.22363 4.88268 2.32363 4.34102 2.52363 3.84102C2.72363 3.33268 3.0403 2.86602 3.48197 2.44935C4.0153 1.92435 4.59863 1.66602 5.2153 1.66602C5.44863 1.66602 5.68197 1.71602 5.8903 1.81602C6.10697 1.91602 6.29863 2.06602 6.44863 2.28268L8.38197 5.00768C8.53197 5.21602 8.6403 5.40768 8.7153 5.59102C8.7903 5.76602 8.83197 5.94102 8.83197 6.09935C8.83197 6.29935 8.77363 6.49935 8.65697 6.69102C8.54863 6.88268 8.3903 7.08268 8.1903 7.28268L7.55697 7.94102C7.4653 8.03268 7.42363 8.14102 7.42363 8.27435C7.42363 8.34102 7.43197 8.39935 7.44863 8.46602C7.47363 8.53268 7.49863 8.58268 7.5153 8.63268C7.6653 8.90768 7.92363 9.26602 8.2903 9.69935C8.6653 10.1327 9.0653 10.5743 9.49863 11.016C9.58197 11.0993 9.67363 11.1827 9.75697 11.266C10.0903 11.591 10.0986 12.1243 9.7653 12.4577Z" fill="#9D4858"/>
<path d="M18.865 15.2752C18.865 15.5085 18.8233 15.7502 18.74 15.9835C18.715 16.0502 18.69 16.1169 18.6566 16.1835C18.515 16.4835 18.3316 16.7669 18.09 17.0335C17.6816 17.4835 17.2316 17.8085 16.7233 18.0169C16.715 18.0169 16.7066 18.0252 16.6983 18.0252C16.2066 18.2252 15.6733 18.3335 15.0983 18.3335C14.2483 18.3335 13.34 18.1335 12.3816 17.7252C11.4233 17.3169 10.465 16.7669 9.51497 16.0752C9.18997 15.8335 8.86497 15.5919 8.55664 15.3335L11.2816 12.6085C11.515 12.7835 11.7233 12.9169 11.8983 13.0085C11.94 13.0252 11.99 13.0502 12.0483 13.0752C12.115 13.1002 12.1816 13.1085 12.2566 13.1085C12.3983 13.1085 12.5066 13.0585 12.5983 12.9669L13.2316 12.3419C13.44 12.1335 13.64 11.9752 13.8316 11.8752C14.0233 11.7585 14.215 11.7002 14.4233 11.7002C14.5816 11.7002 14.7483 11.7335 14.9316 11.8085C15.115 11.8835 15.3066 11.9919 15.515 12.1335L18.2733 14.0919C18.49 14.2419 18.64 14.4169 18.7316 14.6252C18.815 14.8335 18.865 15.0419 18.865 15.2752Z" fill="#9D4858"/>
</svg>
