<svg width="21" height="20" viewBox="0 0 21 20" fill="none" xmlns="http://www.w3.org/2000/svg">
<path d="M9.98942 12.4583L8.44775 14C8.12275 14.325 7.60609 14.325 7.27275 14.0083C7.18109 13.9167 7.08942 13.8333 6.99775 13.7417C6.13942 12.875 5.36442 11.9667 4.67275 11.0167C3.98942 10.0667 3.43942 9.11666 3.03942 8.175C2.64775 7.225 2.44775 6.31666 2.44775 5.45C2.44775 4.88333 2.54775 4.34166 2.74775 3.84166C2.94775 3.33333 3.26442 2.86666 3.70609 2.45C4.23942 1.925 4.82275 1.66666 5.43942 1.66666C5.67275 1.66666 5.90609 1.71666 6.11442 1.81666C6.33109 1.91666 6.52275 2.06666 6.67275 2.28333L8.60609 5.00833C8.75609 5.21666 8.86442 5.40833 8.93942 5.59166C9.01442 5.76666 9.05609 5.94166 9.05609 6.1C9.05609 6.3 8.99775 6.5 8.88109 6.69166C8.77275 6.88333 8.61442 7.08333 8.41442 7.28333L7.78109 7.94166C7.68942 8.03333 7.64775 8.14166 7.64775 8.275C7.64775 8.34166 7.65609 8.4 7.67275 8.46666C7.69775 8.53333 7.72275 8.58333 7.73942 8.63333C7.88942 8.90833 8.14775 9.26666 8.51442 9.7C8.88942 10.1333 9.28942 10.575 9.72275 11.0167C9.80609 11.1 9.89775 11.1833 9.98109 11.2667C10.3144 11.5917 10.3228 12.125 9.98942 12.4583Z" fill="white"/>
<path d="M19.0896 15.275C19.0896 15.5083 19.0479 15.75 18.9646 15.9833C18.9396 16.05 18.9146 16.1167 18.8812 16.1833C18.7396 16.4833 18.5563 16.7667 18.3146 17.0333C17.9062 17.4833 17.4562 17.8083 16.9479 18.0167C16.9396 18.0167 16.9313 18.025 16.9229 18.025C16.4313 18.225 15.8979 18.3333 15.3229 18.3333C14.4729 18.3333 13.5646 18.1333 12.6062 17.725C11.6479 17.3167 10.6896 16.7667 9.73958 16.075C9.41458 15.8333 9.08958 15.5917 8.78125 15.3333L11.5062 12.6083C11.7396 12.7833 11.9479 12.9167 12.1229 13.0083C12.1646 13.025 12.2146 13.05 12.2729 13.075C12.3396 13.1 12.4062 13.1083 12.4812 13.1083C12.6229 13.1083 12.7312 13.0583 12.8229 12.9667L13.4562 12.3417C13.6646 12.1333 13.8646 11.975 14.0562 11.875C14.2479 11.7583 14.4396 11.7 14.6479 11.7C14.8062 11.7 14.9729 11.7333 15.1562 11.8083C15.3396 11.8833 15.5312 11.9917 15.7396 12.1333L18.4979 14.0917C18.7146 14.2417 18.8646 14.4167 18.9562 14.625C19.0396 14.8333 19.0896 15.0417 19.0896 15.275Z" fill="white"/>
</svg>
