<svg width="20" height="20" viewBox="0 0 20 20" fill="none" xmlns="http://www.w3.org/2000/svg">
<path d="M12.4998 18.9583H7.49984C2.97484 18.9583 1.0415 17.025 1.0415 12.5V7.49999C1.0415 2.97499 2.97484 1.04166 7.49984 1.04166H11.6665C12.0082 1.04166 12.2915 1.32499 12.2915 1.66666C12.2915 2.00832 12.0082 2.29166 11.6665 2.29166H7.49984C3.65817 2.29166 2.2915 3.65832 2.2915 7.49999V12.5C2.2915 16.3417 3.65817 17.7083 7.49984 17.7083H12.4998C16.3415 17.7083 17.7082 16.3417 17.7082 12.5V8.33332C17.7082 7.99166 17.9915 7.70832 18.3332 7.70832C18.6748 7.70832 18.9582 7.99166 18.9582 8.33332V12.5C18.9582 17.025 17.0248 18.9583 12.4998 18.9583Z" fill="#513647" stroke="#513647" stroke-width="0.5"/>
<path d="M18.3332 8.95831H14.9998C12.1498 8.95831 11.0415 7.84998 11.0415 4.99998V1.66665C11.0415 1.41665 11.1915 1.18331 11.4248 1.09165C11.6582 0.991647 11.9248 1.04998 12.1082 1.22498L18.7748 7.89165C18.9498 8.06665 19.0082 8.34165 18.9082 8.57498C18.8082 8.80831 18.5832 8.95831 18.3332 8.95831ZM12.2915 3.17498V4.99998C12.2915 7.14998 12.8498 7.70831 14.9998 7.70831H16.8248L12.2915 3.17498Z" fill="#513647" stroke="#513647" stroke-width="0.5"/>
<path d="M10.833 11.4583H5.83301C5.49134 11.4583 5.20801 11.175 5.20801 10.8333C5.20801 10.4916 5.49134 10.2083 5.83301 10.2083H10.833C11.1747 10.2083 11.458 10.4916 11.458 10.8333C11.458 11.175 11.1747 11.4583 10.833 11.4583Z" fill="#513647" stroke="#513647" stroke-width="0.5"/>
<path d="M9.16634 14.7917H5.83301C5.49134 14.7917 5.20801 14.5083 5.20801 14.1667C5.20801 13.825 5.49134 13.5417 5.83301 13.5417H9.16634C9.50801 13.5417 9.79134 13.825 9.79134 14.1667C9.79134 14.5083 9.50801 14.7917 9.16634 14.7917Z" fill="#513647" stroke="#513647" stroke-width="0.5"/>
</svg>
