<svg width="35" height="42" viewBox="0 0 35 42" fill="none" xmlns="http://www.w3.org/2000/svg">
<g clip-path="url(#clip0_457_1303)">
<path d="M6.08728 20.1075C5.70352 20.1075 5.39258 19.8089 5.39258 19.4409V5.07938C5.39258 4.71136 5.70352 4.41272 6.08728 4.41272H22.5201C22.9038 4.41272 23.2153 4.71136 23.2153 5.07938C23.2153 5.4474 22.9053 5.74801 22.5216 5.74801H6.78199V19.4409C6.78199 19.8089 6.47104 20.1075 6.08728 20.1075Z" fill="#9D4858" stroke="#9D4858" stroke-width="0.75"/>
<path d="M22.5215 37.5878H6.08875C5.70499 37.5878 5.39404 37.2892 5.39404 36.9211V22.5592C5.39404 22.1912 5.70499 21.8925 6.08875 21.8925C6.47251 21.8925 6.78345 22.1912 6.78345 22.5592V36.2545H22.5225C22.9063 36.2545 23.2177 36.5526 23.2177 36.9211C23.2177 37.2897 22.9053 37.5878 22.5215 37.5878Z" fill="#9D4858" stroke="#9D4858" stroke-width="0.75"/>
<path d="M22.5218 41.91C22.382 41.9101 22.2451 41.8693 22.1282 41.7924C22.0366 41.7329 21.9612 41.6516 21.9088 41.5558C21.8564 41.4599 21.8287 41.3526 21.8281 41.2433V0.756657C21.8288 0.647384 21.8566 0.539985 21.9091 0.444136C21.9615 0.348286 22.037 0.266995 22.1287 0.207585C22.2223 0.146406 22.3288 0.107881 22.4398 0.0950699C22.5508 0.0822588 22.6633 0.095515 22.7683 0.133785L34.5557 4.4565C34.6851 4.50187 34.7974 4.58599 34.8773 4.69743C34.9573 4.80888 35.0009 4.94223 35.0024 5.07937V36.9206C35.0009 37.0578 34.9573 37.1911 34.8773 37.3025C34.7974 37.414 34.6851 37.4981 34.5557 37.5435L22.7693 41.8662C22.6901 41.8953 22.6063 41.9101 22.5218 41.91ZM23.2161 1.7254V40.2746L33.6145 36.4616V5.5384L23.2161 1.7254Z" fill="#9D4858" stroke="#9D4858" stroke-width="0.75"/>
<path d="M24.9227 23.5038C24.5395 23.5038 24.2285 23.2051 24.2285 22.8371V19.1629C24.2285 18.7949 24.5395 18.4962 24.9227 18.4962C25.306 18.4962 25.6164 18.7949 25.6164 19.1629V22.8371C25.6164 23.2051 25.3065 23.5038 24.9227 23.5038Z" fill="#9D4858" stroke="#9D4858" stroke-width="0.75"/>
<path d="M9.61031 24.5547C9.48885 24.5549 9.36933 24.5243 9.26295 24.4657C9.15869 24.4092 9.07146 24.3259 9.01036 24.2243C8.94927 24.1227 8.91654 24.0066 8.9156 23.888V23.2258H0.491579C0.107819 23.2258 -0.203125 22.9272 -0.203125 22.5592V19.4409C-0.203125 19.0728 0.107819 18.7742 0.491579 18.7742H8.9156V18.112C8.91654 17.9934 8.94927 17.8773 9.01036 17.7757C9.07146 17.6741 9.15869 17.5908 9.26295 17.5344C9.36936 17.4758 9.48884 17.4451 9.61031 17.4451C9.73177 17.4451 9.85125 17.4758 9.95766 17.5344L15.1684 20.4224C15.2733 20.4781 15.3611 20.5612 15.4223 20.663C15.4835 20.7647 15.5158 20.8813 15.5158 21C15.5158 21.1188 15.4835 21.2353 15.4223 21.337C15.3611 21.4388 15.2733 21.522 15.1684 21.5776L9.95766 24.4657C9.8513 24.5243 9.73177 24.555 9.61031 24.5547ZM1.18579 21.8925H9.61031C9.99407 21.8925 10.305 22.1906 10.305 22.5592V22.7333L13.4317 21L10.305 19.2667V19.4409C10.305 19.8094 9.99407 20.108 9.61031 20.108H1.18579V21.8925Z" fill="#9D4858" stroke="#9D4858" stroke-width="0.75"/>
</g>
<defs>
<clipPath id="clip0_457_1303">
<rect width="34.8" height="42" fill="white"/>
</clipPath>
</defs>
</svg>
