<svg width="112" height="18" viewBox="0 0 112 18" fill="none" xmlns="http://www.w3.org/2000/svg">
<path d="M8.73179 1.60081C8.86152 1.20153 9.4264 1.20153 9.55613 1.60081L11.1981 6.6543C11.2561 6.83286 11.4225 6.95376 11.6103 6.95376H16.9238C17.3437 6.95376 17.5182 7.49098 17.1786 7.73775L12.8798 10.861C12.7279 10.9713 12.6644 11.167 12.7224 11.3455L14.3644 16.399C14.4941 16.7983 14.0371 17.1303 13.6975 16.8835L9.39869 13.7603C9.2468 13.65 9.04112 13.65 8.88922 13.7603L4.59047 16.8835C4.25082 17.1303 3.79383 16.7983 3.92356 16.399L5.56554 11.3455C5.62356 11.167 5.56 10.9713 5.40811 10.861L1.10935 7.73775C0.769703 7.49098 0.944258 6.95376 1.36408 6.95376H6.67764C6.86539 6.95376 7.03179 6.83286 7.08981 6.6543L8.73179 1.60081Z" fill="#F6961B"/>
<path d="M32.1595 1.60081C32.2893 1.20153 32.8541 1.20153 32.9839 1.60081L34.6258 6.6543C34.6839 6.83286 34.8503 6.95376 35.038 6.95376H40.3516C40.7714 6.95376 40.9459 7.49098 40.6063 7.73775L36.3075 10.861C36.1557 10.9713 36.0921 11.167 36.1501 11.3455L37.7921 16.399C37.9218 16.7983 37.4648 17.1303 37.1252 16.8835L32.8264 13.7603C32.6745 13.65 32.4689 13.65 32.317 13.7603L28.0182 16.8835C27.6786 17.1303 27.2216 16.7983 27.3513 16.399L28.9933 11.3455C29.0513 11.167 28.9877 10.9713 28.8358 10.861L24.5371 7.73775C24.1974 7.49098 24.372 6.95376 24.7918 6.95376H30.1054C30.2931 6.95376 30.4595 6.83286 30.5175 6.6543L32.1595 1.60081Z" fill="#F6961B"/>
<path d="M55.5877 1.60081C55.7175 1.20153 56.2824 1.20153 56.4121 1.60081L58.0541 6.6543C58.1121 6.83286 58.2785 6.95376 58.4662 6.95376H63.7798C64.1996 6.95376 64.3742 7.49098 64.0345 7.73775L59.7358 10.861C59.5839 10.9713 59.5203 11.167 59.5783 11.3455L61.2203 16.399C61.35 16.7983 60.8931 17.1303 60.5534 16.8835L56.2547 13.7603C56.1028 13.65 55.8971 13.65 55.7452 13.7603L51.4464 16.8835C51.1068 17.1303 50.6498 16.7983 50.7795 16.399L52.4215 11.3455C52.4795 11.167 52.416 10.9713 52.2641 10.861L47.9653 7.73775C47.6257 7.49098 47.8002 6.95376 48.22 6.95376H53.5336C53.7213 6.95376 53.8877 6.83286 53.9458 6.6543L55.5877 1.60081Z" fill="#F6961B"/>
<path d="M79.0155 1.60081C79.1452 1.20153 79.7101 1.20153 79.8398 1.60081L81.4818 6.6543C81.5398 6.83286 81.7062 6.95376 81.894 6.95376H87.2075C87.6274 6.95376 87.8019 7.49098 87.4623 7.73775L83.1635 10.861C83.0116 10.9713 82.9481 11.167 83.0061 11.3455L84.648 16.399C84.7778 16.7983 84.3208 17.1303 83.9811 16.8835L79.6824 13.7603C79.5305 13.65 79.3248 13.65 79.1729 13.7603L74.8742 16.8835C74.5345 17.1303 74.0775 16.7983 74.2073 16.399L75.8492 11.3455C75.9073 11.167 75.8437 10.9713 75.6918 10.861L71.393 7.73775C71.0534 7.49098 71.2279 6.95376 71.6478 6.95376H76.9613C77.1491 6.95376 77.3155 6.83286 77.3735 6.6543L79.0155 1.60081Z" fill="#F6961B"/>
<path d="M102.444 1.60081C102.573 1.20153 103.138 1.20153 103.268 1.60081L104.91 6.6543C104.968 6.83286 105.134 6.95376 105.322 6.95376H110.636C111.056 6.95376 111.23 7.49098 110.89 7.73775L106.592 10.861C106.44 10.9713 106.376 11.167 106.434 11.3455L108.076 16.399C108.206 16.7983 107.749 17.1303 107.409 16.8835L103.111 13.7603C102.959 13.65 102.753 13.65 102.601 13.7603L98.3024 16.8835C97.9627 17.1303 97.5057 16.7983 97.6355 16.399L99.2775 11.3455C99.3355 11.167 99.2719 10.9713 99.12 10.861L94.8213 7.73775C94.4816 7.49098 94.6562 6.95376 95.076 6.95376H100.39C100.577 6.95376 100.744 6.83286 100.802 6.6543L102.444 1.60081Z" fill="#F6961B"/>
</svg>
