<svg width="40" height="40" viewBox="0 0 40 40" fill="none" xmlns="http://www.w3.org/2000/svg">
<g clip-path="url(#clip0_457_1250)">
<path fill-rule="evenodd" clip-rule="evenodd" d="M39.7373 32.8587C39.7425 32.8891 39.7451 32.9198 39.7451 32.9507V36.7111C39.7451 37.0143 39.4993 37.2601 39.1961 37.2601H1.54902C1.2458 37.2601 1 37.0143 1 36.7111V32.9507C1 32.9198 1.00259 32.8891 1.00776 32.8587L6.00471 3.45702C6.04957 3.1931 6.27827 3 6.54596 3H34.1991C34.4668 3 34.6955 3.1931 34.7404 3.45702L39.7373 32.8587ZM2.09804 33.4997V36.162H38.6471V33.4997H2.09804ZM15.3096 4.09804H7.00957L5.76016 11.4494H14.6382C15.0226 7.24047 15.3096 4.09804 15.3096 4.09804ZM5.57357 12.5475L3.79969 22.9849H13.5847C13.8951 19.5867 14.2392 15.8185 14.538 12.5475H5.57357ZM3.61302 24.0829L2.19922 32.4016H12.7248C12.8344 31.201 13.1303 27.9616 13.4845 24.0829H3.61302ZM24.8001 4.09804H16.4122L15.478 14.3276H25.5811L24.8001 4.09804ZM38.5459 32.4016L37.2175 24.5853H27.4655L28.0623 32.4016H38.5459ZM37.0308 23.4873L36.3298 19.3626H27.0667L27.3816 23.4873H37.0308ZM36.1432 18.2645L34.6232 9.32078H26.3001L26.9829 18.2645H36.1432ZM34.4366 8.22274L33.7355 4.09804H25.9013L26.2162 8.22274H34.4366ZM14.4209 25.9018L13.8274 32.4016H26.961L26.4648 25.9018H14.4209ZM15.3776 15.4256L14.5213 24.8038H26.3809L25.6649 15.4256H15.3776Z" fill="#9D4858" stroke="#9D4858" stroke-width="0.75"/>
</g>
<defs>
<clipPath id="clip0_457_1250">
<rect width="40" height="40" fill="white"/>
</clipPath>
</defs>
</svg>
