<svg width="27" height="39" viewBox="0 0 27 39" fill="none" xmlns="http://www.w3.org/2000/svg">
<path d="M9.10664 15.8715L8.67323 18.3966C8.55891 19.0637 8.82901 19.7257 9.37675 20.1227C9.68579 20.3463 10.0463 20.4607 10.4094 20.4607C10.6908 20.4607 10.9722 20.3928 11.2323 20.2559L13.4999 19.0624L15.7662 20.2534C16.3654 20.5687 17.0752 20.5185 17.6242 20.1227C18.172 19.7257 18.4408 19.0637 18.3278 18.3953L17.8943 15.8715L19.7272 14.0838C20.2134 13.6127 20.3843 12.9192 20.1757 12.276C19.9659 11.6315 19.4195 11.1705 18.7511 11.075L16.2147 10.7069L15.0828 8.40916L15.0815 8.4079C14.7825 7.80112 14.1757 7.42549 13.4999 7.42549C12.824 7.42549 12.2172 7.80238 11.9169 8.40916L10.785 10.7069L8.25112 11.075C7.58026 11.1705 7.03378 11.6315 6.82398 12.276C6.61544 12.9205 6.78755 13.6127 7.27122 14.0825L9.10664 15.8715ZM11.6984 12.8589C12.0664 12.8049 12.3843 12.5737 12.5501 12.2408L13.4999 10.3137L14.4496 12.2396C14.6154 12.5737 14.9333 12.8036 15.3014 12.8577L17.427 13.1667L15.8893 14.6654C15.6217 14.9255 15.4999 15.2999 15.5639 15.6667L15.927 17.7835L14.025 16.7835C13.6958 16.6114 13.3014 16.6114 12.9722 16.7835L11.0702 17.7835L11.4333 15.6667C11.4973 15.2999 11.3755 14.9255 11.1079 14.6654L9.57021 13.1667L11.6984 12.8589Z" fill="#9D4858"/>
<path d="M27 14.2811C27 6.83764 20.9435 0.781113 13.5 0.781113C6.05653 0.781113 0 6.83764 0 14.2811C0 18.5148 1.96357 22.2949 5.02261 24.7723V36.4256C5.02261 37.0851 5.38317 37.6894 5.96357 38.0035C6.54523 38.315 7.24498 38.2887 7.79774 37.9243L13.5 34.1794L19.2023 37.9231C19.5 38.1191 19.843 38.217 20.1847 38.217C20.4761 38.217 20.7688 38.1454 21.0364 38.0022C21.6168 37.6881 21.9774 37.0851 21.9774 36.4243V24.7711C25.0364 22.2949 27 18.5148 27 14.2811ZM2.26256 14.2811C2.26256 8.08388 7.30276 3.04242 13.5 3.04242C19.6972 3.04242 24.7374 8.08388 24.7374 14.2799C24.7374 20.4758 19.6972 25.5185 13.5 25.5185C7.30276 25.5185 2.26256 20.4771 2.26256 14.2811ZM19.7148 35.555L14.4824 32.1191C13.8857 31.7283 13.1143 31.7271 12.5163 32.1203L7.28518 35.555V26.2522C9.14824 27.2233 11.2588 27.7811 13.5 27.7811C15.7412 27.7811 17.853 27.2233 19.7148 26.2522V35.555Z" fill="#9D4858"/>
</svg>
