<svg width="25" height="24" viewBox="0 0 25 24" fill="none" xmlns="http://www.w3.org/2000/svg">
<path d="M21.1767 8.45C20.1267 3.83 16.0967 1.75 12.5567 1.75C12.5567 1.75 12.5567 1.75 12.5467 1.75C9.01674 1.75 4.97674 3.82 3.92674 8.44C2.75674 13.6 5.91674 17.97 8.77674 20.72C9.83674 21.74 11.1967 22.25 12.5567 22.25C13.9167 22.25 15.2767 21.74 16.3267 20.72C19.1867 17.97 22.3467 13.61 21.1767 8.45ZM12.5567 13.46C10.8167 13.46 9.40674 12.05 9.40674 10.31C9.40674 8.57 10.8167 7.16 12.5567 7.16C14.2967 7.16 15.7067 8.57 15.7067 10.31C15.7067 12.05 14.2967 13.46 12.5567 13.46Z" fill="#9D4858"/>
</svg>
