<svg width="40" height="40" viewBox="0 0 40 40" fill="none" xmlns="http://www.w3.org/2000/svg">
<path fill-rule="evenodd" clip-rule="evenodd" d="M17.6202 37.6194C16.9117 37.6194 16.2993 37.0906 16.195 36.3893L15.6466 32.6899C15.6342 32.6052 15.5784 32.5339 15.501 32.506C15.0868 32.3511 14.6768 32.1735 14.2802 31.9773C14.2038 31.9401 14.1129 31.9483 14.0427 31.9989L11.0186 34.1802C10.4423 34.5964 9.65949 34.5334 9.15652 34.0304L5.90633 30.7803C5.40543 30.2793 5.34552 29.4727 5.76793 28.9026L8.0659 25.8063C8.1165 25.7382 8.1258 25.6462 8.09068 25.5667C7.92647 25.2032 7.77775 24.8283 7.64761 24.4523C7.6187 24.3687 7.54743 24.3067 7.46171 24.2933L3.67137 23.6798C2.96907 23.5662 2.46094 22.9682 2.46094 22.2577V17.6607C2.46094 16.9512 2.98869 16.3398 3.69099 16.2355L7.55673 15.6623C7.64142 15.6499 7.71268 15.59 7.7447 15.5073C7.87689 15.149 8.02768 14.7926 8.19086 14.4477C8.22908 14.3682 8.22081 14.2763 8.17021 14.206L5.90013 11.0612C5.48392 10.4849 5.54692 9.70202 6.04989 9.19905L9.30008 5.94886C9.80098 5.44795 10.6076 5.38805 11.1777 5.81046L14.2833 8.11462C14.3525 8.16626 14.4454 8.17452 14.527 8.13631C14.8864 7.96796 15.2583 7.81304 15.6342 7.67671C15.7168 7.64676 15.7757 7.57653 15.7901 7.49185L16.4016 3.71183C16.5152 3.00953 17.1131 2.50037 17.8237 2.50037H22.4196C23.1281 2.50037 23.7406 3.02812 23.8449 3.73042L24.3964 7.44744C24.4088 7.53316 24.4666 7.60545 24.5472 7.63334C24.9634 7.77896 25.3765 7.94937 25.7752 8.13631C25.8506 8.17142 25.9404 8.16213 26.0117 8.11152L29.0212 5.93853C29.5975 5.52231 30.3804 5.58531 30.8833 6.08828L34.1335 9.33848C34.6344 9.83938 34.6943 10.646 34.2719 11.2161L32.102 14.142C32.0504 14.2122 32.0411 14.3062 32.0804 14.3888C32.2848 14.8154 32.4687 15.2574 32.6267 15.7056C32.6567 15.7893 32.7279 15.8513 32.8126 15.8637L36.3695 16.4389C37.0718 16.5525 37.581 17.1505 37.581 17.8611V22.458C37.581 23.1665 37.0522 23.779 36.3509 23.8833L32.8002 24.41C32.7135 24.4224 32.6412 24.4833 32.6122 24.569C32.448 25.0307 32.2549 25.4872 32.0401 25.9282C32.0008 26.0088 32.0081 26.1027 32.0587 26.173L34.1418 29.0607C34.558 29.637 34.495 30.4198 33.9921 30.9228L30.7419 34.173C30.241 34.6739 29.4343 34.7338 28.8642 34.3114L25.9487 32.1487C25.8795 32.0981 25.7865 32.0888 25.7049 32.126C25.2753 32.3243 24.8291 32.5029 24.3788 32.6537C24.2941 32.6827 24.2332 32.7529 24.2187 32.8376L23.6414 36.409C23.5278 37.1113 22.9298 37.6204 22.2193 37.6204L17.6202 37.6194ZM14.8142 30.8959C15.1746 31.0736 15.5474 31.2357 15.9234 31.3762C16.4108 31.559 16.762 31.9938 16.8384 32.5133L17.3868 36.2138C17.4044 36.3284 17.5035 36.4152 17.6192 36.4152H22.2162C22.3329 36.4152 22.43 36.3325 22.4485 36.2169L23.0259 32.6455C23.1116 32.1177 23.4813 31.6829 23.9915 31.5115C24.4005 31.3741 24.8064 31.212 25.1968 31.0323C25.6791 30.8092 26.241 30.867 26.6644 31.181L29.5789 33.3426C29.6719 33.4118 29.8041 33.4015 29.8857 33.3199L33.1359 30.0697C33.2175 29.9881 33.2288 29.86 33.1607 29.7661L31.0765 26.8773C30.7646 26.4456 30.7181 25.8776 30.9525 25.3973C31.1477 24.9966 31.3233 24.5825 31.472 24.1632C31.6517 23.6571 32.0927 23.2946 32.6195 23.2171L36.1702 22.6904C36.2848 22.6728 36.3716 22.5737 36.3716 22.458V17.8611C36.3716 17.7444 36.2879 17.6473 36.1733 17.6287L32.6164 17.0534C32.0948 16.9687 31.6621 16.6052 31.4865 16.1053C31.344 15.6994 31.1767 15.2977 30.9908 14.9104C30.7573 14.4239 30.81 13.8538 31.1302 13.4232L33.3001 10.4973C33.3693 10.4043 33.3589 10.2721 33.2774 10.1905L30.0272 6.94034C29.9456 6.85771 29.8175 6.84738 29.7235 6.91555L26.7129 9.08751C26.2874 9.39425 25.7308 9.44692 25.2588 9.2259C24.8963 9.05549 24.5214 8.90161 24.1434 8.76941C23.6404 8.59177 23.2779 8.15283 23.1994 7.62301L22.6489 3.90703C22.6313 3.79239 22.5322 3.70563 22.4165 3.70563H17.8196C17.7029 3.70563 17.6058 3.78826 17.5872 3.90393L16.9758 7.68394C16.8932 8.19931 16.5337 8.63101 16.0411 8.80969C15.7003 8.93259 15.3626 9.07305 15.0352 9.22694C14.5529 9.45415 13.9879 9.39734 13.5614 9.08131L10.4547 6.77715C10.3618 6.70796 10.2296 6.71829 10.148 6.79988L6.89987 10.0511C6.81828 10.1327 6.80692 10.2608 6.87509 10.3547L9.14516 13.5006C9.4519 13.9261 9.50354 14.488 9.27736 14.9641C9.12864 15.277 8.99231 15.6013 8.87147 15.9277C8.68763 16.4234 8.25076 16.7797 7.73024 16.8562L3.8645 17.4294C3.74986 17.4469 3.66311 17.5461 3.66311 17.6617V22.2577C3.66311 22.3744 3.74573 22.4714 3.8614 22.49L7.65175 23.1035C8.1764 23.1882 8.60914 23.5538 8.78472 24.0578C8.90246 24.3997 9.03775 24.7395 9.18751 25.0699C9.40336 25.5471 9.34449 26.1048 9.03259 26.5241L6.73566 29.6204C6.66646 29.7134 6.67679 29.8456 6.75838 29.9272L10.0075 33.1774C10.0891 33.26 10.2172 33.2703 10.3112 33.2021L13.3352 31.0209C13.7855 30.6987 14.3515 30.6666 14.8142 30.8959Z" fill="#9D4858" stroke="#9D4858" stroke-width="0.55"/>
<path fill-rule="evenodd" clip-rule="evenodd" d="M20.0186 30.0955C14.4849 30.0955 9.98193 25.5935 9.98193 20.0588C9.98193 14.5241 14.4839 10.0222 20.0186 10.0222C25.5533 10.0222 30.0553 14.5241 30.0553 20.0588C30.0553 25.5935 25.5523 30.0955 20.0186 30.0955ZM20.0186 11.2285C15.149 11.2285 11.1882 15.1892 11.1882 20.0588C11.1882 24.9284 15.149 28.8892 20.0186 28.8892C24.8882 28.8892 28.849 24.9284 28.849 20.0588C28.849 15.1892 24.8872 11.2285 20.0186 11.2285Z" fill="#9D4858" stroke="#9D4858" stroke-width="0.55"/>
<path fill-rule="evenodd" clip-rule="evenodd" d="M22.1067 29.8631C21.7741 29.8631 21.5035 29.5936 21.5035 29.26V23.8141C21.5035 23.5858 21.6316 23.3782 21.834 23.276C24.258 22.049 24.7527 18.8959 23.0134 16.978V19.3555C23.0134 19.592 22.8761 19.8058 22.6613 19.9039L20.2693 20.9976C20.1103 21.071 19.9275 21.071 19.7674 20.9976L17.3754 19.9039C17.1606 19.8058 17.0233 19.591 17.0233 19.3555V16.979C15.283 18.8959 15.7787 22.0511 18.2027 23.277C18.4051 23.3803 18.5332 23.5879 18.5332 23.8151V29.261C18.5332 29.5936 18.2636 29.8641 17.93 29.8641C17.5965 29.8641 17.3269 29.5946 17.3269 29.261V24.1714C13.9548 22.1564 13.9187 17.2465 17.3145 15.1954C17.7163 14.9527 18.2296 15.2419 18.2296 15.7108V18.9682L20.0184 19.7862L21.8071 18.9682V15.7108C21.8071 15.2419 22.3204 14.9527 22.7222 15.1954C26.1211 17.2496 26.0777 22.1585 22.7098 24.1714V29.261C22.7098 29.5936 22.4392 29.8631 22.1067 29.8631Z" fill="#9D4858" stroke="#9D4858" stroke-width="0.55"/>
</svg>
