<svg width="35" height="35" viewBox="0 0 35 35" fill="none" xmlns="http://www.w3.org/2000/svg">
<g clip-path="url(#clip0_435_1970)">
<path d="M27.5632 20.8379H19.897C20.5296 18.9399 20.8657 17.3424 20.9212 15.9798C21.052 12.7661 19.5346 11.4937 18.2387 10.9923C18.1844 10.9712 18.128 10.9561 18.0705 10.947C17.0663 10.7885 16.7088 11.261 16.4719 11.795L16.4408 11.8648C16.4061 11.9414 16.3835 12.0229 16.3736 12.1064C16.171 13.843 15.6257 15.5221 14.7694 17.0464C13.9131 18.5706 12.7628 19.9098 11.3852 20.9863C11.2407 20.7566 11.0404 20.5673 10.8029 20.4361C10.5654 20.3048 10.2986 20.2359 10.0272 20.2357H4.36509C3.93942 20.2362 3.53131 20.4055 3.23031 20.7065C2.92931 21.0075 2.76001 21.4156 2.75954 21.8413V33.3944C2.76001 33.8201 2.92931 34.2282 3.23031 34.5292C3.53131 34.8302 3.93942 34.9995 4.36509 35H10.0272C10.3566 34.9996 10.6779 34.8981 10.9478 34.7092C11.2176 34.5203 11.4229 34.2531 11.5359 33.9437C12.1592 34.4382 12.8844 34.7882 13.6594 34.9683C13.7175 34.9818 13.777 34.989 13.8367 34.9897C14.4784 34.9965 15.2434 35 16.1256 35C17.0056 35 18.0022 34.9965 19.108 34.9897H26.33C26.7522 34.9898 27.1669 34.8778 27.5317 34.665C27.8964 34.4523 28.1981 34.1464 28.4058 33.7788C28.6135 33.4112 28.7199 32.995 28.7139 32.5728C28.708 32.1506 28.59 31.7375 28.372 31.3759C28.854 31.0106 29.179 30.4757 29.2809 29.8796C29.3829 29.2835 29.2543 28.671 28.9211 28.1663C29.389 27.7696 29.6858 27.2078 29.7495 26.5978C29.8133 25.9877 29.6392 25.3766 29.2635 24.8918C29.5928 24.5569 29.8157 24.1321 29.9043 23.6709C29.993 23.2097 29.9433 22.7326 29.7617 22.2994C29.58 21.8663 29.2744 21.4965 28.8833 21.2366C28.4921 20.9766 28.0329 20.838 27.5632 20.8381V20.8379ZM9.99216 33.3594H4.40037V21.8763H9.99216V33.3594ZM22.7649 25.6063H27.3781C27.5741 25.6082 27.7614 25.6874 27.8993 25.8266C28.0373 25.9659 28.1146 26.1539 28.1146 26.3499C28.1146 26.5459 28.0373 26.734 27.8993 26.8732C27.7614 27.0124 27.5741 27.0916 27.3781 27.0935H23.4226C23.205 27.0935 22.9964 27.1799 22.8425 27.3338C22.6887 27.4876 22.6023 27.6962 22.6023 27.9138C22.6023 28.1314 22.6887 28.34 22.8425 28.4938C22.9964 28.6477 23.205 28.7341 23.4226 28.7341H26.9309C27.1268 28.736 27.3141 28.8152 27.4521 28.9544C27.59 29.0936 27.6674 29.2817 27.6674 29.4777C27.6674 29.6737 27.59 29.8617 27.4521 30.001C27.3141 30.1402 27.1268 30.2194 26.9309 30.2213H23.9991C23.7815 30.2213 23.5729 30.3077 23.419 30.4615C23.2652 30.6154 23.1788 30.824 23.1788 31.0416C23.1788 31.2591 23.2652 31.4678 23.419 31.6216C23.5729 31.7755 23.7815 31.8619 23.9991 31.8619H26.3301C26.5261 31.8638 26.7134 31.9429 26.8513 32.0822C26.9892 32.2214 27.0666 32.4095 27.0666 32.6055C27.0666 32.8015 26.9892 32.9895 26.8513 33.1288C26.7134 33.268 26.5261 33.3472 26.3301 33.3491H19.1029C16.9468 33.3624 15.2132 33.3627 13.9486 33.3501C13.4636 33.2259 13.0086 33.0052 12.6108 32.7014C12.2129 32.3975 11.8804 32.0165 11.633 31.5813V22.8389C13.3364 21.6745 14.7785 20.1678 15.8672 18.415C16.956 16.6622 17.6674 14.7017 17.9562 12.6587C18.5096 12.9475 19.3725 13.6919 19.2824 15.913C19.2236 17.3581 18.7942 19.1442 17.9699 21.3737C17.924 21.4977 17.9088 21.631 17.9256 21.7622C17.9424 21.8933 17.9906 22.0185 18.0661 22.127C18.1417 22.2355 18.2424 22.3242 18.3596 22.3854C18.4768 22.4466 18.6071 22.4785 18.7393 22.4785H27.5632C27.7592 22.4804 27.9465 22.5596 28.0844 22.6988C28.2223 22.8381 28.2997 23.0261 28.2997 23.2221C28.2997 23.4181 28.2223 23.6062 28.0844 23.7454C27.9465 23.8847 27.7592 23.9638 27.5632 23.9657H22.7649C22.5473 23.9657 22.3387 24.0521 22.1849 24.206C22.031 24.3598 21.9446 24.5685 21.9446 24.786C21.9446 25.0036 22.031 25.2122 22.1849 25.3661C22.3387 25.5199 22.5473 25.6063 22.7649 25.6063ZM4.83424 23.2494C4.83424 23.0319 4.92067 22.8232 5.07451 22.6694C5.22835 22.5155 5.437 22.4291 5.65456 22.4291H6.25653C6.47409 22.4291 6.68274 22.5155 6.83658 22.6694C6.99042 22.8232 7.07684 23.0319 7.07684 23.2494C7.07684 23.467 6.99042 23.6756 6.83658 23.8295C6.68274 23.9833 6.47409 24.0697 6.25653 24.0697H5.65462C5.43706 24.0697 5.22841 23.9833 5.07458 23.8295C4.92074 23.6756 4.83431 23.467 4.83431 23.2494H4.83424ZM23.022 4.01181C22.9734 3.86229 22.8829 3.72988 22.7612 3.63035C22.6395 3.53081 22.4918 3.46834 22.3356 3.45037L19.4526 3.11869L18.2463 0.479336C18.1809 0.336351 18.0759 0.215157 17.9436 0.130182C17.8113 0.045207 17.6574 3.05176e-05 17.5002 3.05176e-05C17.343 3.05176e-05 17.1891 0.045207 17.0568 0.130182C16.9246 0.215157 16.8195 0.336351 16.7541 0.479336L15.5477 3.11869L12.6648 3.45037C12.5086 3.46835 12.3609 3.53083 12.2392 3.63036C12.1176 3.7299 12.0271 3.8623 11.9785 4.01181C11.9299 4.16132 11.9253 4.32164 11.9652 4.47369C12.0052 4.62573 12.0879 4.7631 12.2037 4.86944L14.3411 6.83238L13.7657 9.67675C13.7345 9.83084 13.7483 9.99064 13.8053 10.1371C13.8624 10.2836 13.9603 10.4106 14.0875 10.503C14.2147 10.5954 14.3658 10.6493 14.5227 10.6583C14.6797 10.6673 14.8359 10.6311 14.9728 10.5538L17.5002 9.12755L20.0275 10.5538C20.1644 10.6311 20.3207 10.6673 20.4776 10.6583C20.6346 10.6493 20.7856 10.5954 20.9128 10.503C21.04 10.4106 21.138 10.2836 21.195 10.1371C21.2521 9.99064 21.2659 9.83084 21.2347 9.67675L20.6593 6.83238L22.7967 4.86944C22.9125 4.76311 22.9953 4.62574 23.0352 4.47369C23.0752 4.32165 23.0706 4.16132 23.022 4.01181ZM19.2086 5.93715C19.1046 6.03269 19.027 6.15348 18.9834 6.28782C18.9397 6.42215 18.9315 6.56549 18.9595 6.70394L19.2708 8.24291L17.9036 7.47127C17.7806 7.40186 17.6417 7.36539 17.5005 7.36539C17.3592 7.36539 17.2204 7.40186 17.0974 7.47127L15.7302 8.24291L16.0415 6.70394C16.0695 6.56549 16.0613 6.42215 16.0176 6.28782C15.974 6.15348 15.8964 6.03269 15.7923 5.93715L14.6353 4.87505L16.1952 4.69561C16.3355 4.67947 16.4693 4.62736 16.5836 4.54432C16.6979 4.46129 16.7888 4.35015 16.8475 4.22167L17.5002 2.79364L18.1529 4.22167C18.2116 4.35014 18.3025 4.46128 18.4168 4.54431C18.5311 4.62734 18.6649 4.67945 18.8052 4.69561L20.3651 4.87505L19.2086 5.93715ZM32.7943 7.08798C32.7457 6.93846 32.6551 6.80606 32.5335 6.70652C32.4118 6.60698 32.264 6.54451 32.1079 6.52654L29.869 6.2689L28.9324 4.21914C28.8671 4.07616 28.762 3.95496 28.6297 3.86999C28.4975 3.78501 28.3436 3.73984 28.1864 3.73984C28.0291 3.73984 27.8752 3.78501 27.743 3.86999C27.6107 3.95496 27.5056 4.07616 27.4403 4.21914L26.5031 6.2689L24.2642 6.52654C24.108 6.54452 23.9603 6.607 23.8386 6.70654C23.7169 6.80607 23.6264 6.93847 23.5778 7.08798C23.5292 7.23749 23.5247 7.39781 23.5646 7.54986C23.6045 7.7019 23.6873 7.83927 23.8031 7.94562L25.463 9.47003L25.0161 11.679C24.985 11.8331 24.9987 11.9929 25.0558 12.1394C25.1128 12.2859 25.2108 12.4129 25.338 12.5053C25.4652 12.5977 25.6162 12.6516 25.7732 12.6606C25.9301 12.6696 26.0864 12.6333 26.2233 12.556L28.1861 11.4486L30.1488 12.556C30.2857 12.6333 30.442 12.6696 30.5989 12.6606C30.7559 12.6516 30.9069 12.5977 31.0341 12.5053C31.1613 12.4129 31.2592 12.2859 31.3163 12.1394C31.3734 11.9929 31.3871 11.8331 31.356 11.679L30.9091 9.47003L32.5691 7.94562C32.6848 7.83926 32.7676 7.70189 32.8075 7.54984C32.8475 7.3978 32.8428 7.23748 32.7943 7.08798ZM29.4583 8.5748C29.3543 8.67035 29.2767 8.79115 29.233 8.9255C29.1894 9.05985 29.1811 9.20319 29.2091 9.34165L29.3919 10.2452L28.5891 9.79214C28.466 9.72272 28.3272 9.68624 28.1859 9.68624C28.0446 9.68624 27.9058 9.72272 27.7828 9.79214L26.9799 10.2452L27.1627 9.34165C27.1908 9.20319 27.1825 9.05985 27.1389 8.9255C27.0952 8.79115 27.0176 8.67035 26.9136 8.5748L26.2346 7.95122L27.1506 7.84588C27.2909 7.82974 27.4247 7.77763 27.539 7.6946C27.6533 7.61157 27.7442 7.50043 27.8029 7.37194L28.1861 6.53352L28.5693 7.37194C28.628 7.50043 28.7189 7.61157 28.8332 7.6946C28.9475 7.77763 29.0813 7.82974 29.2217 7.84588L30.1377 7.95122L29.4583 8.5748ZM11.4231 7.08798C11.3745 6.93846 11.284 6.80606 11.1623 6.70652C11.0406 6.60698 10.8928 6.54451 10.7367 6.52654L8.49728 6.2689L7.56076 4.21914C7.4954 4.07616 7.39034 3.95496 7.25807 3.86999C7.1258 3.78501 6.9719 3.73984 6.81468 3.73984C6.65747 3.73984 6.50357 3.78501 6.3713 3.86999C6.23903 3.95496 6.13396 4.07616 6.06861 4.21914L5.13147 6.2689L2.89256 6.52654C2.73639 6.54451 2.58866 6.60698 2.46697 6.70651C2.34529 6.80604 2.25476 6.93844 2.20618 7.08796C2.15759 7.23747 2.15299 7.39779 2.19292 7.54984C2.23285 7.70189 2.31563 7.83927 2.43141 7.94562L4.09138 9.47003L3.64452 11.679C3.61335 11.8331 3.62712 11.9929 3.68418 12.1394C3.74124 12.2859 3.8392 12.4129 3.96638 12.5053C4.09357 12.5977 4.24462 12.6516 4.40158 12.6606C4.55853 12.6696 4.71476 12.6333 4.85168 12.556L6.81448 11.4486L8.77721 12.556C8.91413 12.6333 9.07036 12.6696 9.22731 12.6606C9.38426 12.6516 9.53532 12.5977 9.66251 12.5053C9.78969 12.4129 9.88765 12.2859 9.94471 12.1394C10.0018 11.9929 10.0155 11.8331 9.98437 11.679L9.53751 9.47003L11.1974 7.94562C11.3133 7.83932 11.3961 7.70197 11.4361 7.54992C11.4761 7.39787 11.4716 7.23753 11.4231 7.08798ZM8.08712 8.5748C7.98308 8.67035 7.90547 8.79115 7.86182 8.9255C7.81816 9.05985 7.80994 9.20319 7.83795 9.34165L8.02075 10.2452L7.21794 9.79214C7.09487 9.72265 6.95594 9.68614 6.81461 9.68614C6.67329 9.68614 6.53436 9.72265 6.41129 9.79214L5.60848 10.2452L5.79121 9.34165C5.81922 9.20319 5.811 9.05985 5.76735 8.9255C5.72369 8.79115 5.64608 8.67035 5.54204 8.5748L4.86309 7.95122L5.77911 7.84588C5.91945 7.82974 6.05325 7.77763 6.16754 7.6946C6.28183 7.61157 6.37274 7.50043 6.43146 7.37194L6.81468 6.53352L7.1975 7.37194C7.25622 7.50043 7.34713 7.61157 7.46142 7.6946C7.57571 7.77763 7.70951 7.82974 7.84985 7.84588L8.76587 7.95122L8.08712 8.5748Z" fill="#9D4858"/>
</g>
<defs>
<clipPath id="clip0_435_1970">
<rect width="35" height="35" fill="white"/>
</clipPath>
</defs>
</svg>
