<svg width="12" height="11" viewBox="0 0 12 11" fill="none" xmlns="http://www.w3.org/2000/svg">
<g clip-path="url(#clip0_399_2891)">
<path d="M0.724609 4.44567H10.1052L6.51319 1.02439C6.32511 0.845237 6.31782 0.54759 6.49697 0.359504C6.67588 0.171653 6.97353 0.16413 7.16185 0.343282L11.264 4.25076C11.4415 4.42851 11.5396 4.66455 11.5396 4.91589C11.5396 5.16698 11.4415 5.40326 11.2557 5.58877L7.16161 9.48825C7.07063 9.57502 6.95402 9.61807 6.8374 9.61807C6.71327 9.61807 6.58913 9.56917 6.49673 9.47203C6.31758 9.28395 6.32487 8.98652 6.51296 8.80738L10.12 5.3861H0.724609C0.465051 5.3861 0.254395 5.17545 0.254395 4.91589C0.254395 4.65633 0.465051 4.44567 0.724609 4.44567Z" fill="white"/>
</g>
<defs>
<clipPath id="clip0_399_2891">
<rect width="11.7031" height="10.0312" fill="white" transform="translate(0.0454102 0.019043)"/>
</clipPath>
</defs>
</svg>
