<svg width="40" height="40" viewBox="0 0 40 40" fill="none" xmlns="http://www.w3.org/2000/svg">
<path d="M6.56749 36.6667H33.4335C33.8022 36.6667 34.1002 36.368 34.1002 36V19.0427L34.9588 19.9014C35.0888 20.0314 35.2595 20.0967 35.4302 20.0967C35.6008 20.0967 35.7715 20.0314 35.9015 19.9014C36.1622 19.6407 36.1622 19.2194 35.9015 18.9587L33.9182 16.9747C33.9075 16.9634 33.8975 16.9534 33.8862 16.9427L31.0328 14.0894V4.00004C31.0328 3.63204 30.7348 3.33337 30.3662 3.33337H25.3535C24.9848 3.33337 24.6868 3.63204 24.6868 4.00004V7.74337L20.4722 3.52871C20.2222 3.27871 19.7795 3.27871 19.5295 3.52871L6.11349 16.944C6.10282 16.954 6.09349 16.9634 6.08415 16.9734L4.09882 18.9587C3.83815 19.2194 3.83815 19.6407 4.09882 19.9014C4.35949 20.162 4.78082 20.162 5.04149 19.9014L5.90082 19.042V36C5.90082 36.368 6.19882 36.6667 6.56749 36.6667ZM20.0002 4.94271L24.8815 9.82471C25.0728 10.016 25.3595 10.0734 25.6082 9.96938C25.8568 9.86604 26.0195 9.62271 26.0195 9.35337V4.66671H29.6988V14.3654C29.6988 14.542 29.7688 14.712 29.8942 14.8367L32.7668 17.7094V35.3334H7.23415V17.7087L20.0002 4.94271Z" fill="#9D4858" stroke="#9D4858" stroke-width="0.75"/>
<path d="M13.8971 30.1047H26.1025C26.4711 30.1047 26.7691 29.806 26.7691 29.438V17.2327C26.7691 16.8647 26.4711 16.566 26.1025 16.566H13.8971C13.5285 16.566 13.2305 16.8647 13.2305 17.2327V29.438C13.2305 29.806 13.5285 30.1047 13.8971 30.1047ZM14.5638 24.002H19.3331V28.7714H14.5638V24.002ZM20.6665 28.7714V24.002H25.4351V28.7714H20.6665ZM25.4358 22.6687H20.6665V17.8994H25.4351L25.4358 22.6687ZM19.3331 17.8994V22.6687H14.5638V17.8994H19.3331Z" fill="#9D4858" stroke="#9D4858" stroke-width="0.75"/>
</svg>
